<svg xmlns="http://www.w3.org/2000/svg" xml:space="preserve" style="fill-rule:evenodd;clip-rule:evenodd;stroke-linecap:round;stroke-linejoin:round;stroke-miterlimit:2" viewBox="0 0 8522 1542"><path d="M0 0h8521.83v1541.85H0z" style="fill:none"/><path d="M1458.96 513.155C1351.626 225.082 1076.579 34.044 769.159 34.044c-406.278 0-736.125 329.846-736.125 736.125s329.847 736.125 736.125 736.125c320.322 0 603.874-207.142 701.272-512.297l-153.96-49.14c-76.015 238.16-297.315 399.825-547.312 399.825-317.082 0-574.513-257.43-574.513-574.513s257.431-574.514 574.513-574.514c239.928 0 454.59 149.098 538.359 373.926z" style="fill:url(#a)"/><path d="M785.218 1000.37c-2.782-6.146-47.606-109.721-75.626-197.943-17.413-54.825-30.675-195.381.109-294.816 26.025-84.064 75.979-175.281 76.099-175.499 6.628 10.924 50.643 81.781 78.877 184.058 0 0 5.367 20.989 11.024 52.891 3.755 21.179 5.007 46.467 6.112 69.782 2.039 43.054-10.246 122.866-12.616 133.554-24.365 109.93-83.571 223.902-83.979 227.973l.336-3.389z" style="fill:url(#b)"/><path d="M785.218 1000.37c-2.782-6.146-47.606-109.721-75.626-197.943-17.413-54.825-30.675-195.381.109-294.816 26.025-84.064 75.979-175.281 76.099-175.499 6.628 10.924 50.643 81.781 78.877 184.058 0 0 5.367 20.989 11.024 52.891 3.755 21.179 5.007 46.467 6.112 69.782 2.039 43.054-10.246 122.866-12.616 133.554-24.365 109.93-83.571 223.902-83.979 227.973l.336-3.389z" style="fill:none;stroke:url(#c);stroke-width:6.25px"/><path d="M1223.61 607.723c-.368.057-87.974 13.784-161.224 54.939-59.298 33.316-105.46 70.356-146.222 127.301-36.642 51.191-53.697 88.305-71.808 131.343-13.138 31.217-43.998 84.765-43.998 84.765 2.551 1.054 118.617-57.748 180.423-89.137 63.373-32.186 125.561-81.286 156.268-119.696 15.958-19.96 29.718-41.242 41.229-62.092 10.641-19.274 19.36-38.179 26.118-55.334 11.322-28.745 19.216-72.091 19.216-72.091z" style="fill:url(#d);stroke:url(#e);stroke-width:6.25px"/><path d="M810.47 1021.17s65.454-25.438 119.817-51c39.966-18.793 81.621-36.503 128.913-39.677 73.073-4.904 159.338 19.442 159.413 19.471h0c-.048.042-30.002 26.253-61.294 44.537-29.712 17.361-71.515 32.372-97.949 38.04-25.259 5.417-76.768 10.379-119.531 6.677-40.843-3.536-129.191-18.019-129.369-18.048" style="fill:url(#f);stroke:url(#g);stroke-width:6.25px"/><path d="M767.943 1006.14c-23.936-11.974-137.89-65.536-185.356-91.612-54.247-29.8-135.779-105.054-176.511-165.69-39.847-59.321-63.718-135.791-65.532-141.421 0 0 57.561 3.256 140.404 41.124 64.562 29.513 101.824 64.224 131.658 97.15s98.617 101.828 155.337 260.449" style="fill:url(#h);stroke:url(#i);stroke-width:6.25px"/><path d="m350.099 955.129-.017.022s45.138 39.319 95.391 57.121c43.625 15.455 102.052 28.099 165 27.008 45.637-.791 139.102-19.813 139.102-19.813-5.256-2.875-85.532-39.062-122.696-55.253-39.797-17.338-90.508-35.936-148.639-37.159-103.666-2.182-127.425 27.158-128.141 28.074" style="fill:url(#j);stroke:url(#k);stroke-width:6.25px"/><path d="m552.206 1147.78-.62.08s12.659-24.999 39.759-49.9c24.677-22.676 50.329-36.768 74.105-44.491 10.359-3.365 28.31-6.164 45.604-8.276 23.533-2.874 45.85-4.476 46.166-4.499l.018-.01s-24.659 35.068-47.496 52.21c-22.837 17.141-48.992 29.086-76.292 38.559-25.594 8.881-75.15 15.53-81.244 16.327" style="fill:url(#l);stroke:url(#m);stroke-width:6.25px"/><path d="m1011.78 1147.97.619.08s-12.659-24.998-39.758-49.9c-24.677-22.676-50.329-36.768-74.105-44.49-10.36-3.365-28.31-6.164-45.604-8.277-23.533-2.874-45.85-4.476-46.166-4.498l-.019-.01s24.66 35.068 47.497 52.209 48.992 29.086 76.292 38.559c25.594 8.882 75.15 15.531 81.244 16.327" style="fill:url(#n);stroke:url(#o);stroke-width:6.25px"/><path d="M773.617 1038.33h17.814v148.332h-17.814z" style="fill:url(#p);stroke:url(#q);stroke-width:6.25px"/><path d="M2048.9 772.062q0 58.46 18.203 104.935 18.203 46.474 50.057 78.649t75.194 49.208 94.047 17.034q30.337 0 58.508-11.356 28.17-11.355 52.224-29.651t43.122-41.217q19.07-22.922 31.205-46.474l40.739 25.235q-17.769 28.179-42.039 54.045-24.27 25.865-56.125 45.843-31.854 19.978-71.943 31.754t-89.496 11.776q-71.51 0-129.802-23.132-58.291-23.131-99.897-62.667-41.606-39.534-64.359-92.318-22.753-52.782-22.753-111.664 0-39.115 10.401-76.336 10.401-37.222 30.121-69.817t48.107-59.723 64.142-46.685 78.228-30.282q42.472-10.725 90.579-10.725 45.94 0 84.729 11.987t70.643 31.754 56.775 45.633 42.689 54.045l-42.039 26.918q-35.972-67.715-80.612-99.048t-102.714-31.333q-49.84 0-93.18 17.664t-75.627 50.47-50.707 79.701-18.42 105.777" style="fill:url(#r);fill-rule:nonzero"/><path d="m2865.85 478.494 270.438 570.311h-98.381l-87.545-185.897H2703.76l-90.579 185.897h-48.54l276.939-570.311zm-145.187 348.243h211.929l-104.448-220.806z" style="fill:url(#s);fill-rule:nonzero"/><path d="M3200.43 491.112h54.174l376.62 407.966h4.334V491.112h42.472v570.731h-22.536L3247.67 608.455h-3.467v440.35h-43.773z" style="fill:url(#t);fill-rule:nonzero"/><path d="m4043.38 478.494 270.438 570.311h-98.381l-87.545-185.897H3881.29l-90.579 185.897h-48.54l276.939-570.311zm-145.187 348.243h211.93l-104.448-220.806z" style="fill:url(#u);fill-rule:nonzero"/><path d="M4377.96 491.112h182.026q45.072 0 84.512 10.514 39.438 10.515 68.693 30.913t45.939 50.05q16.686 29.651 16.686 67.924 0 37.852-16.252 66.032-16.252 28.179-42.906 46.684-26.654 18.506-60.459 27.549-33.804 9.042-68.909 9.042-15.17 0-31.638-.631-16.468-.63-31.638-1.892-15.168-1.263-28.171-2.945-13-1.682-21.236-3.364v257.817h-96.647zm96.647 268.332q16.469 5.467 35.105 9.043t38.139 3.575q31.204 0 54.607-9.043 23.404-9.043 39.006-24.814t23.186-37.012q7.585-21.239 7.585-45.212 0-28.18-9.968-50.891t-27.521-38.904q-17.552-16.193-41.172-25.025t-50.491-8.832h-68.476z" style="fill:url(#v);fill-rule:nonzero"/><path d="m5026.75 478.494 270.438 570.311h-98.38l-87.546-185.897h-246.601l-90.579 185.897h-48.541l276.939-570.311zm-145.187 348.243h211.93l-104.448-220.806z" style="fill:url(#w);fill-rule:nonzero"/><path d="M5361.33 491.112h96.647v521.523h289.507v36.17H5361.33z" style="fill:url(#x);fill-rule:nonzero"/><path d="m6043.06 478.494 270.438 570.311h-98.381l-87.545-185.897H5880.97l-90.579 185.897h-48.54l276.939-570.311zm-145.187 348.243h211.93l-104.448-220.806z" style="fill:url(#y);fill-rule:nonzero"/><path d="M6377.64 491.112h54.175l376.619 407.966h4.334V491.112h42.473v570.731h-22.537L6424.88 608.455h-3.467v440.35h-43.773z" style="fill:url(#z);fill-rule:nonzero"/><path d="M6995.66 491.112h191.56q88.412 0 152.121 15.982 63.71 15.983 106.182 51.311 48.54 40.376 73.027 92.529 24.486 52.152 24.486 113.978 0 58.881-21.886 110.613-21.887 51.732-64.142 90.215-42.257 38.484-104.448 60.774-62.192 22.291-142.37 22.291h-214.53zm96.646 516.897h102.715q48.54 0 91.446-15.562t74.761-46.264q31.854-30.702 50.273-75.495 18.42-44.792 18.42-103.673 0-51.732-17.336-94.842t-48.54-74.233q-31.205-31.123-74.327-48.367t-94.264-17.244h-103.148z" style="fill:url(#A);fill-rule:nonzero"/><path d="M7657.46 491.112h96.647v557.694h-96.647z" style="fill:url(#B);fill-rule:nonzero"/><path d="m8119.89 478.494 270.438 570.311h-98.38l-87.546-185.897h-246.601l-90.58 185.897h-48.54l276.939-570.311zm-145.187 348.243h211.93l-104.448-220.806z" style="fill:url(#C);fill-rule:nonzero"/><defs><linearGradient id="a" x1="0" x2="1" y1="0" y2="0" gradientTransform="rotate(-89.292 1213.86 408.957)scale(1649.956)" gradientUnits="userSpaceOnUse"><stop offset="0" style="stop-color:#004c1a;stop-opacity:1"/><stop offset=".19" style="stop-color:#004a51;stop-opacity:1"/><stop offset=".37" style="stop-color:#007d52;stop-opacity:1"/><stop offset=".49" style="stop-color:#0d8443;stop-opacity:1"/><stop offset=".64" style="stop-color:#2e951c;stop-opacity:1"/><stop offset="1" style="stop-color:#e86337;stop-opacity:1"/></linearGradient><linearGradient id="b" x1="0" x2="1" y1="0" y2="0" gradientTransform="rotate(-90.048 986.99 196.645)scale(739.19426)" gradientUnits="userSpaceOnUse"><stop offset="0" style="stop-color:#004c1a;stop-opacity:1"/><stop offset=".09" style="stop-color:#004b43;stop-opacity:1"/><stop offset=".19" style="stop-color:#004a51;stop-opacity:1"/><stop offset=".35" style="stop-color:#007d52;stop-opacity:1"/><stop offset=".5" style="stop-color:#0d8443;stop-opacity:1"/><stop offset=".68" style="stop-color:#2e951c;stop-opacity:1"/><stop offset="1" style="stop-color:#e86337;stop-opacity:1"/></linearGradient><linearGradient id="c" x1="0" x2="1" y1="0" y2="0" gradientTransform="rotate(-90.12 990.11 200.091)scale(833.799)" gradientUnits="userSpaceOnUse"><stop offset="0" style="stop-color:#004c1a;stop-opacity:1"/><stop offset=".07" style="stop-color:#014c1a;stop-opacity:1"/><stop offset=".14" style="stop-color:#044d1a;stop-opacity:1"/><stop offset=".33" style="stop-color:#395122;stop-opacity:1"/><stop offset=".53" style="stop-color:#5f5428;stop-opacity:1"/><stop offset=".73" style="stop-color:#94582f;stop-opacity:1"/><stop offset="1" style="stop-color:#e86f21;stop-opacity:1"/></linearGradient><linearGradient id="d" x1="0" x2="1" y1="0" y2="0" gradientTransform="rotate(-90.048 986.99 196.645)scale(739.19426)" gradientUnits="userSpaceOnUse"><stop offset="0" style="stop-color:#004c1a;stop-opacity:1"/><stop offset=".09" style="stop-color:#004b43;stop-opacity:1"/><stop offset=".19" style="stop-color:#004a51;stop-opacity:1"/><stop offset=".35" style="stop-color:#007d52;stop-opacity:1"/><stop offset=".5" style="stop-color:#0d8443;stop-opacity:1"/><stop offset=".68" style="stop-color:#2e951c;stop-opacity:1"/><stop offset="1" style="stop-color:#e86337;stop-opacity:1"/></linearGradient><linearGradient id="e" x1="0" x2="1" y1="0" y2="0" gradientTransform="rotate(-90.12 990.11 200.091)scale(833.799)" gradientUnits="userSpaceOnUse"><stop offset="0" style="stop-color:#004c1a;stop-opacity:1"/><stop offset=".07" style="stop-color:#014c1a;stop-opacity:1"/><stop offset=".14" style="stop-color:#044d1a;stop-opacity:1"/><stop offset=".33" style="stop-color:#395122;stop-opacity:1"/><stop offset=".53" style="stop-color:#5f5428;stop-opacity:1"/><stop offset=".73" style="stop-color:#94582f;stop-opacity:1"/><stop offset="1" style="stop-color:#e86f21;stop-opacity:1"/></linearGradient><linearGradient id="f" x1="0" x2="1" y1="0" y2="0" gradientTransform="rotate(-90.048 986.99 196.645)scale(739.19426)" gradientUnits="userSpaceOnUse"><stop offset="0" style="stop-color:#004c1a;stop-opacity:1"/><stop offset=".09" style="stop-color:#004b43;stop-opacity:1"/><stop offset=".19" style="stop-color:#004a51;stop-opacity:1"/><stop offset=".35" style="stop-color:#007d52;stop-opacity:1"/><stop offset=".5" style="stop-color:#0d8443;stop-opacity:1"/><stop offset=".68" style="stop-color:#2e951c;stop-opacity:1"/><stop offset="1" style="stop-color:#e86337;stop-opacity:1"/></linearGradient><linearGradient id="g" x1="0" x2="1" y1="0" y2="0" gradientTransform="rotate(-90.12 990.11 200.091)scale(833.799)" gradientUnits="userSpaceOnUse"><stop offset="0" style="stop-color:#004c1a;stop-opacity:1"/><stop offset=".07" style="stop-color:#014c1a;stop-opacity:1"/><stop offset=".14" style="stop-color:#044d1a;stop-opacity:1"/><stop offset=".33" style="stop-color:#395122;stop-opacity:1"/><stop offset=".53" style="stop-color:#5f5428;stop-opacity:1"/><stop offset=".73" style="stop-color:#94582f;stop-opacity:1"/><stop offset="1" style="stop-color:#e86f21;stop-opacity:1"/></linearGradient><linearGradient id="h" x1="0" x2="1" y1="0" y2="0" gradientTransform="rotate(-90.048 986.99 196.645)scale(739.19426)" gradientUnits="userSpaceOnUse"><stop offset="0" style="stop-color:#004c1a;stop-opacity:1"/><stop offset=".09" style="stop-color:#004b43;stop-opacity:1"/><stop offset=".19" style="stop-color:#004a51;stop-opacity:1"/><stop offset=".35" style="stop-color:#007d52;stop-opacity:1"/><stop offset=".5" style="stop-color:#0d8443;stop-opacity:1"/><stop offset=".68" style="stop-color:#2e951c;stop-opacity:1"/><stop offset="1" style="stop-color:#e86337;stop-opacity:1"/></linearGradient><linearGradient id="i" x1="0" x2="1" y1="0" y2="0" gradientTransform="rotate(-90.12 990.11 200.091)scale(833.799)" gradientUnits="userSpaceOnUse"><stop offset="0" style="stop-color:#004c1a;stop-opacity:1"/><stop offset=".07" style="stop-color:#014c1a;stop-opacity:1"/><stop offset=".14" style="stop-color:#044d1a;stop-opacity:1"/><stop offset=".33" style="stop-color:#395122;stop-opacity:1"/><stop offset=".53" style="stop-color:#5f5428;stop-opacity:1"/><stop offset=".73" style="stop-color:#94582f;stop-opacity:1"/><stop offset="1" style="stop-color:#e86f21;stop-opacity:1"/></linearGradient><linearGradient id="j" x1="0" x2="1" y1="0" y2="0" gradientTransform="rotate(-90.048 986.99 196.645)scale(739.19426)" gradientUnits="userSpaceOnUse"><stop offset="0" style="stop-color:#004c1a;stop-opacity:1"/><stop offset=".09" style="stop-color:#004b43;stop-opacity:1"/><stop offset=".19" style="stop-color:#004a51;stop-opacity:1"/><stop offset=".35" style="stop-color:#007d52;stop-opacity:1"/><stop offset=".5" style="stop-color:#0d8443;stop-opacity:1"/><stop offset=".68" style="stop-color:#2e951c;stop-opacity:1"/><stop offset="1" style="stop-color:#e86337;stop-opacity:1"/></linearGradient><linearGradient id="k" x1="0" x2="1" y1="0" y2="0" gradientTransform="rotate(-90.12 990.11 200.091)scale(833.799)" gradientUnits="userSpaceOnUse"><stop offset="0" style="stop-color:#004c1a;stop-opacity:1"/><stop offset=".07" style="stop-color:#014c1a;stop-opacity:1"/><stop offset=".14" style="stop-color:#044d1a;stop-opacity:1"/><stop offset=".33" style="stop-color:#395122;stop-opacity:1"/><stop offset=".53" style="stop-color:#5f5428;stop-opacity:1"/><stop offset=".73" style="stop-color:#94582f;stop-opacity:1"/><stop offset="1" style="stop-color:#e86f21;stop-opacity:1"/></linearGradient><linearGradient id="l" x1="0" x2="1" y1="0" y2="0" gradientTransform="rotate(-90.048 986.99 196.645)scale(739.19426)" gradientUnits="userSpaceOnUse"><stop offset="0" style="stop-color:#004c1a;stop-opacity:1"/><stop offset=".09" style="stop-color:#004b43;stop-opacity:1"/><stop offset=".19" style="stop-color:#004a51;stop-opacity:1"/><stop offset=".35" style="stop-color:#007d52;stop-opacity:1"/><stop offset=".5" style="stop-color:#0d8443;stop-opacity:1"/><stop offset=".68" style="stop-color:#2e951c;stop-opacity:1"/><stop offset="1" style="stop-color:#e86337;stop-opacity:1"/></linearGradient><linearGradient id="m" x1="0" x2="1" y1="0" y2="0" gradientTransform="rotate(-90.12 990.11 200.091)scale(833.799)" gradientUnits="userSpaceOnUse"><stop offset="0" style="stop-color:#004c1a;stop-opacity:1"/><stop offset=".07" style="stop-color:#014c1a;stop-opacity:1"/><stop offset=".14" style="stop-color:#044d1a;stop-opacity:1"/><stop offset=".33" style="stop-color:#395122;stop-opacity:1"/><stop offset=".53" style="stop-color:#5f5428;stop-opacity:1"/><stop offset=".73" style="stop-color:#94582f;stop-opacity:1"/><stop offset="1" style="stop-color:#e86f21;stop-opacity:1"/></linearGradient><linearGradient id="n" x1="0" x2="1" y1="0" y2="0" gradientTransform="rotate(-90.048 986.99 196.645)scale(739.19426)" gradientUnits="userSpaceOnUse"><stop offset="0" style="stop-color:#004c1a;stop-opacity:1"/><stop offset=".09" style="stop-color:#004b43;stop-opacity:1"/><stop offset=".19" style="stop-color:#004a51;stop-opacity:1"/><stop offset=".35" style="stop-color:#007d52;stop-opacity:1"/><stop offset=".5" style="stop-color:#0d8443;stop-opacity:1"/><stop offset=".68" style="stop-color:#2e951c;stop-opacity:1"/><stop offset="1" style="stop-color:#e86337;stop-opacity:1"/></linearGradient><linearGradient id="o" x1="0" x2="1" y1="0" y2="0" gradientTransform="rotate(-90.12 990.11 200.091)scale(833.799)" gradientUnits="userSpaceOnUse"><stop offset="0" style="stop-color:#004c1a;stop-opacity:1"/><stop offset=".07" style="stop-color:#014c1a;stop-opacity:1"/><stop offset=".14" style="stop-color:#044d1a;stop-opacity:1"/><stop offset=".33" style="stop-color:#395122;stop-opacity:1"/><stop offset=".53" style="stop-color:#5f5428;stop-opacity:1"/><stop offset=".73" style="stop-color:#94582f;stop-opacity:1"/><stop offset="1" style="stop-color:#e86f21;stop-opacity:1"/></linearGradient><linearGradient id="p" x1="0" x2="1" y1="0" y2="0" gradientTransform="rotate(-90.048 986.99 196.645)scale(739.19426)" gradientUnits="userSpaceOnUse"><stop offset="0" style="stop-color:#004c1a;stop-opacity:1"/><stop offset=".09" style="stop-color:#004b43;stop-opacity:1"/><stop offset=".19" style="stop-color:#004a51;stop-opacity:1"/><stop offset=".35" style="stop-color:#007d52;stop-opacity:1"/><stop offset=".5" style="stop-color:#0d8443;stop-opacity:1"/><stop offset=".68" style="stop-color:#2e951c;stop-opacity:1"/><stop offset="1" style="stop-color:#e86337;stop-opacity:1"/></linearGradient><linearGradient id="q" x1="0" x2="1" y1="0" y2="0" gradientTransform="rotate(-90.12 990.11 200.091)scale(833.799)" gradientUnits="userSpaceOnUse"><stop offset="0" style="stop-color:#004c1a;stop-opacity:1"/><stop offset=".07" style="stop-color:#014c1a;stop-opacity:1"/><stop offset=".14" style="stop-color:#044d1a;stop-opacity:1"/><stop offset=".33" style="stop-color:#395122;stop-opacity:1"/><stop offset=".53" style="stop-color:#5f5428;stop-opacity:1"/><stop offset=".73" style="stop-color:#94582f;stop-opacity:1"/><stop offset="1" style="stop-color:#e86f21;stop-opacity:1"/></linearGradient><linearGradient id="r" x1="0" x2="1" y1="0" y2="0" gradientTransform="rotate(88.838 1772.22 2311.198)scale(568.429)" gradientUnits="userSpaceOnUse"><stop offset="0" style="stop-color:#1a9c51;stop-opacity:1"/><stop offset=".31" style="stop-color:#136665;stop-opacity:1"/><stop offset="1" style="stop-color:#04443c;stop-opacity:1"/></linearGradient><linearGradient id="s" x1="0" x2="1" y1="0" y2="0" gradientTransform="rotate(88.838 1772.22 2311.198)scale(568.429)" gradientUnits="userSpaceOnUse"><stop offset="0" style="stop-color:#1a9c51;stop-opacity:1"/><stop offset=".31" style="stop-color:#136665;stop-opacity:1"/><stop offset="1" style="stop-color:#04443c;stop-opacity:1"/></linearGradient><linearGradient id="t" x1="0" x2="1" y1="0" y2="0" gradientTransform="rotate(88.838 1772.22 2311.198)scale(568.429)" gradientUnits="userSpaceOnUse"><stop offset="0" style="stop-color:#1a9c51;stop-opacity:1"/><stop offset=".31" style="stop-color:#136665;stop-opacity:1"/><stop offset="1" style="stop-color:#04443c;stop-opacity:1"/></linearGradient><linearGradient id="u" x1="0" x2="1" y1="0" y2="0" gradientTransform="rotate(88.838 1772.22 2311.198)scale(568.429)" gradientUnits="userSpaceOnUse"><stop offset="0" style="stop-color:#1a9c51;stop-opacity:1"/><stop offset=".31" style="stop-color:#136665;stop-opacity:1"/><stop offset="1" style="stop-color:#04443c;stop-opacity:1"/></linearGradient><linearGradient id="v" x1="0" x2="1" y1="0" y2="0" gradientTransform="rotate(88.838 1772.22 2311.198)scale(568.429)" gradientUnits="userSpaceOnUse"><stop offset="0" style="stop-color:#1a9c51;stop-opacity:1"/><stop offset=".31" style="stop-color:#136665;stop-opacity:1"/><stop offset="1" style="stop-color:#04443c;stop-opacity:1"/></linearGradient><linearGradient id="w" x1="0" x2="1" y1="0" y2="0" gradientTransform="rotate(88.838 1772.22 2311.198)scale(568.429)" gradientUnits="userSpaceOnUse"><stop offset="0" style="stop-color:#1a9c51;stop-opacity:1"/><stop offset=".31" style="stop-color:#136665;stop-opacity:1"/><stop offset="1" style="stop-color:#04443c;stop-opacity:1"/></linearGradient><linearGradient id="x" x1="0" x2="1" y1="0" y2="0" gradientTransform="rotate(88.838 1772.22 2311.198)scale(568.429)" gradientUnits="userSpaceOnUse"><stop offset="0" style="stop-color:#1a9c51;stop-opacity:1"/><stop offset=".31" style="stop-color:#136665;stop-opacity:1"/><stop offset="1" style="stop-color:#04443c;stop-opacity:1"/></linearGradient><linearGradient id="y" x1="0" x2="1" y1="0" y2="0" gradientTransform="rotate(88.838 1772.22 2311.198)scale(568.429)" gradientUnits="userSpaceOnUse"><stop offset="0" style="stop-color:#1a9c51;stop-opacity:1"/><stop offset=".31" style="stop-color:#136665;stop-opacity:1"/><stop offset="1" style="stop-color:#04443c;stop-opacity:1"/></linearGradient><linearGradient id="z" x1="0" x2="1" y1="0" y2="0" gradientTransform="rotate(88.838 1772.22 2311.198)scale(568.429)" gradientUnits="userSpaceOnUse"><stop offset="0" style="stop-color:#1a9c51;stop-opacity:1"/><stop offset=".31" style="stop-color:#136665;stop-opacity:1"/><stop offset="1" style="stop-color:#04443c;stop-opacity:1"/></linearGradient><linearGradient id="A" x1="0" x2="1" y1="0" y2="0" gradientTransform="rotate(88.838 1772.22 2311.198)scale(568.429)" gradientUnits="userSpaceOnUse"><stop offset="0" style="stop-color:#1a9c51;stop-opacity:1"/><stop offset=".31" style="stop-color:#136665;stop-opacity:1"/><stop offset="1" style="stop-color:#04443c;stop-opacity:1"/></linearGradient><linearGradient id="B" x1="0" x2="1" y1="0" y2="0" gradientTransform="rotate(88.838 1772.22 2311.198)scale(568.429)" gradientUnits="userSpaceOnUse"><stop offset="0" style="stop-color:#1a9c51;stop-opacity:1"/><stop offset=".31" style="stop-color:#136665;stop-opacity:1"/><stop offset="1" style="stop-color:#04443c;stop-opacity:1"/></linearGradient><linearGradient id="C" x1="0" x2="1" y1="0" y2="0" gradientTransform="rotate(88.838 1772.22 2311.198)scale(568.429)" gradientUnits="userSpaceOnUse"><stop offset="0" style="stop-color:#1a9c51;stop-opacity:1"/><stop offset=".31" style="stop-color:#136665;stop-opacity:1"/><stop offset="1" style="stop-color:#04443c;stop-opacity:1"/></linearGradient></defs></svg>